<svg xmlns="http://www.w3.org/2000/svg" xmlns:xlink="http://www.w3.org/1999/xlink" width="500" zoomAndPan="magnify" viewBox="0 0 375 374.999991" height="500" preserveAspectRatio="xMidYMid meet" version="1.0"><defs><clipPath id="0a322dd447"><path d="M 10 7.472656 L 194 7.472656 L 194 231 L 10 231 Z M 10 7.472656 " clip-rule="nonzero"/></clipPath><clipPath id="4cd1bb49c1"><path d="M 191 105 L 364.695312 105 L 364.695312 231 L 191 231 Z M 191 105 " clip-rule="nonzero"/></clipPath></defs><path fill="#378b38" d="M 58.023438 134.675781 C 58.023438 134.675781 181.113281 75.664062 183.832031 74.339844 C 186.546875 73.015625 318.648438 108.171875 318.648438 108.171875 L 191.0625 172.6875 L 58.023438 134.675781 " fill-opacity="1" fill-rule="nonzero"/><path fill="#74c971" d="M 185.550781 73.5 C 187.578125 70.550781 212.984375 28.1875 217.835938 23.304688 C 222.695312 18.421875 228.554688 12.574219 228.554688 12.574219 L 355.660156 45.460938 L 323.0625 108.277344 L 185.550781 73.5 " fill-opacity="1" fill-rule="nonzero"/><path fill="#74c971" d="M 184.679688 71.707031 C 184.679688 71.707031 149.246094 15.890625 145.746094 12.425781 C 142.246094 8.957031 13.226562 71.367188 13.226562 71.367188 C 13.226562 71.367188 43.496094 134.792969 46.597656 133.019531 C 49.695312 131.242188 56.136719 133.050781 56.136719 133.050781 L 184.679688 71.707031 " fill-opacity="1" fill-rule="nonzero"/><path fill="#0aad0a" d="M 53.789062 138.253906 C 53.789062 138.253906 38.941406 310.921875 55.273438 316.070312 C 71.609375 321.21875 176.496094 367.488281 180.628906 364.996094 C 184.761719 362.511719 307.359375 292.867188 308.292969 287.84375 C 309.21875 282.824219 323.0625 108.277344 323.0625 108.277344 C 323.0625 108.277344 197.601562 172.191406 191.0625 172.6875 C 184.519531 173.179688 53.789062 138.253906 53.789062 138.253906 " fill-opacity="1" fill-rule="nonzero"/><path fill="#74c971" d="M 191.0625 172.6875 C 191.0625 172.6875 157.710938 226.46875 154.355469 227.945312 C 150.996094 229.425781 14.308594 191.449219 15.773438 187.464844 C 17.246094 183.480469 55.804688 135.738281 55.804688 135.738281 L 191.0625 172.6875 " fill-opacity="1" fill-rule="nonzero"/><path fill="#74c971" d="M 191.425781 167.753906 C 191.425781 167.753906 223.214844 229.988281 228.816406 228.546875 C 234.417969 227.105469 360.015625 165.800781 360.847656 160.730469 C 361.675781 155.652344 324.992188 108.773438 324.992188 108.773438 L 191.425781 167.753906 " fill-opacity="1" fill-rule="nonzero"/><g clip-path="url(#0a322dd447)"><path fill="#2c7644" d="M 55.804688 135.738281 C 98.773438 114.410156 141.589844 92.78125 184.679688 71.707031 L 184.273438 73.136719 L 143.996094 9.667969 L 145.519531 10.121094 L 13.226562 71.367188 L 13.957031 69.097656 L 49.695312 131.242188 L 48.621094 130.402344 L 191.785156 170.039062 L 193.597656 170.539062 L 192.578125 172.109375 L 155.019531 229.722656 L 154.535156 230.460938 L 153.703125 230.214844 C 119.980469 220.394531 86.253906 210.582031 52.636719 200.402344 L 27.484375 192.53125 L 21.222656 190.472656 L 18.101562 189.386719 C 17.144531 188.960938 15.894531 188.800781 14.738281 187.722656 C 14.757812 187.027344 15 186.847656 15.109375 186.582031 L 15.566406 185.859375 L 16.511719 184.480469 L 18.472656 181.820312 L 22.503906 176.597656 C 33.402344 162.800781 44.589844 149.261719 55.804688 135.738281 Z M 55.804688 135.738281 C 44.8125 149.4375 33.839844 163.164062 23.175781 177.117188 L 19.242188 182.394531 L 17.339844 185.0625 L 16.445312 186.414062 L 16.03125 187.097656 C 15.886719 187.316406 15.84375 187.609375 15.773438 187.464844 C 16.472656 187.5625 17.386719 187.972656 18.472656 188.324219 L 21.589844 189.355469 L 27.871094 191.308594 L 53.121094 198.761719 L 154.355469 227.945312 L 153.039062 228.441406 L 190.273438 170.617188 L 191.0625 172.6875 L 47.675781 133.851562 L 46.960938 133.664062 L 46.597656 133.019531 L 11.152344 70.703125 L 10.277344 69.164062 L 11.878906 68.429688 L 144.511719 7.925781 L 145.476562 7.484375 L 146.039062 8.375 L 185.957031 72.070312 L 186.546875 73.015625 L 185.550781 73.5 C 142.433594 94.515625 99.046875 114.976562 55.804688 135.738281 " fill-opacity="1" fill-rule="nonzero"/></g><path fill="#2c7644" d="M 188.269531 66.742188 C 192.097656 59.476562 196.152344 52.332031 200.417969 45.308594 C 204.699219 38.296875 209.164062 31.375 214.242188 24.851562 C 216.785156 21.589844 219.535156 18.464844 222.777344 15.734375 C 224.441406 14.429688 226.214844 13.113281 228.554688 12.574219 C 229.722656 12.242188 231.140625 12.542969 232.007812 12.730469 L 235.027344 13.355469 C 243.09375 15.136719 251.042969 17.046875 259.035156 18.953125 C 275.003906 22.734375 290.90625 26.78125 306.816406 30.792969 L 354.519531 42.917969 L 356.679688 43.46875 L 355.660156 45.460938 L 323.503906 108.050781 L 322.9375 109.15625 L 321.726562 108.882812 C 299.425781 103.761719 277.195312 98.347656 254.9375 93.039062 C 232.667969 87.789062 210.496094 82.105469 188.269531 76.664062 C 210.648438 81.4375 233.082031 85.980469 255.417969 90.953125 C 277.765625 95.863281 300.132812 100.667969 322.4375 105.773438 L 320.664062 106.601562 L 352.484375 43.835938 L 353.625 46.375 L 258.378906 21.582031 C 250.449219 19.527344 242.484375 17.449219 234.570312 15.539062 C 232.648438 15.1875 230.355469 14.320312 228.957031 14.648438 C 227.269531 14.984375 225.570312 16.097656 224.023438 17.289062 C 220.917969 19.769531 218.191406 22.824219 215.566406 25.929688 C 210.34375 32.183594 205.648438 38.925781 201.136719 45.765625 C 196.640625 52.621094 192.34375 59.617188 188.269531 66.742188 " fill-opacity="1" fill-rule="nonzero"/><g clip-path="url(#4cd1bb49c1)"><path fill="#2c7644" d="M 191.425781 167.753906 C 213.4375 157.375 235.351562 146.773438 257.441406 136.574219 C 279.515625 126.324219 301.527344 115.953125 323.679688 105.878906 L 324.847656 105.347656 L 325.613281 106.378906 C 336.414062 120.878906 347.199219 135.371094 357.761719 150.074219 L 361.675781 155.652344 C 362.289062 156.519531 363.050781 157.707031 363.730469 158.816406 L 364.136719 159.578125 L 364.238281 159.765625 L 364.28125 159.863281 C 364.214844 159.605469 364.414062 160.214844 364.402344 160.386719 C 364.414062 160.5625 364.398438 160.753906 364.355469 160.949219 C 364.292969 161.320312 364.015625 161.753906 363.886719 161.886719 L 363.742188 162.027344 L 363.449219 162.292969 C 362.847656 162.761719 362.363281 163.066406 361.855469 163.378906 C 357.878906 165.796875 353.886719 167.835938 349.878906 169.964844 L 325.722656 182.316406 L 277.191406 206.453125 L 228.378906 230.015625 L 227.507812 230.4375 L 227.027344 229.617188 C 215 209.089844 203.300781 188.367188 191.425781 167.753906 Z M 191.425781 167.753906 C 203.875 188.023438 216.503906 208.1875 228.816406 228.546875 L 227.457031 228.144531 L 324.199219 179.304688 L 348.226562 166.832031 C 352.183594 164.714844 356.207031 162.574219 359.964844 160.328125 C 360.417969 160.054688 360.886719 159.746094 361.179688 159.523438 L 361.203125 159.507812 L 361.214844 159.507812 C 361.128906 159.582031 360.878906 159.945312 360.847656 160.257812 C 360.820312 160.421875 360.824219 160.582031 360.847656 160.730469 C 360.867188 160.867188 361.046875 161.445312 360.953125 161.160156 L 360.808594 160.875 C 360.679688 160.632812 360.550781 160.355469 360.417969 160.144531 L 358.738281 157.648438 L 354.902344 152.109375 C 344.46875 137.390625 333.765625 122.824219 323.0625 108.277344 L 324.992188 108.773438 C 302.835938 118.84375 280.554688 128.617188 258.320312 138.507812 C 236.105469 148.445312 213.71875 157.992188 191.425781 167.753906 " fill-opacity="1" fill-rule="nonzero"/></g><path fill="#2c7644" d="M 182.414062 78.917969 C 182.414062 78.917969 183.351562 84.09375 184.335938 91.882812 C 184.765625 95.78125 185.390625 100.324219 185.84375 105.199219 C 186.34375 110.078125 186.734375 115.292969 187.136719 120.503906 C 187.464844 125.71875 187.808594 130.9375 188 135.835938 C 188.234375 140.730469 188.25 145.3125 188.367188 149.234375 C 188.484375 157.089844 188.269531 162.34375 188.269531 162.34375 C 188.269531 162.34375 187.324219 157.167969 186.34375 149.382812 C 185.910156 145.476562 185.285156 140.9375 184.835938 136.054688 C 184.335938 131.175781 183.949219 125.96875 183.546875 120.753906 C 183.21875 115.539062 182.878906 110.328125 182.6875 105.425781 C 182.457031 100.527344 182.4375 95.945312 182.320312 92.019531 C 182.203125 84.175781 182.414062 78.917969 182.414062 78.917969 " fill-opacity="1" fill-rule="nonzero"/><path fill="#2c7644" d="M 50.398438 205.636719 L 52.984375 260.84375 L 55.273438 316.070312 L 54.453125 314.921875 C 96.515625 330.28125 138.371094 346.183594 180.339844 361.78125 L 178.789062 361.921875 L 242.859375 323.746094 C 264.195312 310.984375 285.59375 298.335938 307.046875 285.757812 L 306.457031 286.6875 L 311.738281 235.683594 L 317.257812 184.707031 L 313.191406 235.820312 L 308.875 286.917969 L 308.824219 287.519531 L 308.292969 287.84375 C 287.085938 300.824219 265.832031 313.722656 244.519531 326.519531 L 180.628906 364.996094 L 179.882812 365.449219 L 179.078125 365.136719 C 137.246094 349.175781 95.300781 333.507812 53.558594 317.308594 L 52.753906 316.992188 L 52.734375 316.152344 L 51.425781 260.894531 L 50.398438 205.636719 " fill-opacity="1" fill-rule="nonzero"/><path fill="#2c7644" d="M 188.269531 180.378906 C 188.269531 180.378906 188.476562 191.277344 188.367188 207.613281 C 188.234375 215.777344 188.25 225.304688 187.976562 235.507812 C 187.707031 245.707031 187.425781 256.589844 187.140625 267.472656 C 186.695312 278.347656 186.25 289.222656 185.828125 299.421875 C 185.425781 309.617188 184.761719 319.125 184.339844 327.28125 C 183.359375 343.582031 182.414062 354.441406 182.414062 354.441406 C 182.414062 354.441406 182.199219 343.542969 182.3125 327.210938 C 182.441406 319.046875 182.417969 309.519531 182.707031 299.316406 C 182.96875 289.113281 183.257812 278.234375 183.546875 267.347656 C 183.992188 256.472656 184.4375 245.597656 184.859375 235.402344 C 185.269531 225.203125 185.921875 215.699219 186.347656 207.542969 C 187.328125 191.238281 188.269531 180.378906 188.269531 180.378906 " fill-opacity="1" fill-rule="nonzero"/></svg>