<svg xmlns="http://www.w3.org/2000/svg" xmlns:xlink="http://www.w3.org/1999/xlink" width="100" zoomAndPan="magnify" viewBox="0 0 75 74.999997" height="100" preserveAspectRatio="xMidYMid meet" version="1.0"><defs><clipPath id="322aee697b"><path d="M 3.207031 7.820312 L 71.890625 7.820312 L 71.890625 67.15625 L 3.207031 67.15625 Z M 3.207031 7.820312 " clip-rule="nonzero"/></clipPath><clipPath id="d2bd54cb95"><path d="M 9.988281 44.027344 L 26.652344 44.027344 L 26.652344 60.691406 L 9.988281 60.691406 Z M 9.988281 44.027344 " clip-rule="nonzero"/></clipPath></defs><g clip-path="url(#322aee697b)"><path fill="#000000" d="M 52.1875 13.773438 L 60.652344 13.773438 C 60.960938 13.773438 61.273438 13.804688 61.578125 13.867188 C 61.882812 13.925781 62.183594 14.015625 62.46875 14.136719 C 62.757812 14.253906 63.03125 14.402344 63.292969 14.574219 C 63.550781 14.75 63.792969 14.945312 64.011719 15.164062 C 64.234375 15.386719 64.429688 15.625 64.605469 15.886719 C 64.777344 16.144531 64.925781 16.417969 65.042969 16.707031 C 65.164062 16.992188 65.253906 17.289062 65.3125 17.597656 C 65.375 17.902344 65.40625 18.210938 65.40625 18.523438 L 65.40625 29.167969 C 65.40625 29.96875 65.40625 30.566406 65.003906 31.367188 L 66.207031 31.367188 C 70.273438 31.367188 71.816406 33.765625 71.816406 36.765625 L 71.816406 44.164062 C 71.816406 47.164062 70.671875 49.761719 66.207031 49.761719 L 65.003906 49.761719 C 65.40625 50.359375 65.40625 51.160156 65.40625 51.960938 L 65.40625 62.402344 C 65.40625 62.710938 65.375 63.019531 65.3125 63.328125 C 65.253906 63.632812 65.164062 63.929688 65.042969 64.21875 C 64.925781 64.503906 64.777344 64.777344 64.605469 65.039062 C 64.429688 65.296875 64.234375 65.535156 64.011719 65.757812 C 63.792969 65.976562 63.550781 66.175781 63.292969 66.347656 C 63.03125 66.519531 62.757812 66.667969 62.46875 66.785156 C 62.183594 66.90625 61.882812 66.996094 61.578125 67.054688 C 61.273438 67.117188 60.960938 67.148438 60.652344 67.148438 L 7.394531 67.148438 C 7.125 67.148438 6.855469 67.121094 6.59375 67.066406 C 6.328125 67.015625 6.074219 66.9375 5.824219 66.832031 C 5.574219 66.730469 5.339844 66.601562 5.113281 66.453125 C 4.890625 66.304688 4.683594 66.136719 4.492188 65.945312 C 4.300781 65.753906 4.132812 65.546875 3.980469 65.324219 C 3.832031 65.101562 3.707031 64.867188 3.601562 64.617188 C 3.496094 64.371094 3.417969 64.113281 3.367188 63.851562 C 3.3125 63.585938 3.285156 63.320312 3.28125 63.054688 L 3.28125 18.722656 C 3.285156 18.398438 3.316406 18.078125 3.378906 17.757812 C 3.445312 17.441406 3.539062 17.132812 3.664062 16.832031 C 3.789062 16.53125 3.941406 16.246094 4.121094 15.976562 C 4.304688 15.707031 4.507812 15.457031 4.738281 15.226562 C 4.96875 15 5.21875 14.792969 5.488281 14.613281 C 5.757812 14.433594 6.042969 14.28125 6.34375 14.15625 C 6.644531 14.03125 6.953125 13.9375 7.273438 13.871094 C 7.589844 13.808594 7.914062 13.773438 8.238281 13.773438 L 35.160156 13.773438 L 47.578125 7.976562 C 48.378906 7.574219 49.382812 7.976562 49.78125 8.777344 Z M 52.1875 13.773438 " fill-opacity="1" fill-rule="nonzero"/></g><path fill="#ededed" d="M 52.65625 31.453125 L 60.597656 31.417969 C 61.398438 31.21875 62.199219 30.167969 62.199219 29.167969 L 62.199219 23.570312 L 12.527344 23.570312 C 11.527344 23.570312 10.726562 22.769531 10.726562 21.972656 C 10.726562 21.734375 10.773438 21.503906 10.863281 21.28125 C 10.953125 21.0625 11.085938 20.867188 11.253906 20.699219 C 11.421875 20.53125 11.617188 20.398438 11.839844 20.308594 C 12.058594 20.21875 12.289062 20.171875 12.527344 20.171875 L 21.742188 20.171875 L 28.152344 17.171875 L 8.890625 17.171875 C 8.601562 17.175781 8.320312 17.234375 8.050781 17.34375 C 7.78125 17.457031 7.546875 17.617188 7.339844 17.824219 C 7.132812 18.027344 6.972656 18.265625 6.859375 18.535156 C 6.75 18.800781 6.691406 19.082031 6.6875 19.371094 L 6.6875 61.757812 C 6.691406 62.046875 6.75 62.328125 6.859375 62.597656 C 6.972656 62.863281 7.132812 63.101562 7.339844 63.308594 C 7.546875 63.511719 7.78125 63.671875 8.050781 63.785156 C 8.320312 63.894531 8.601562 63.953125 8.890625 63.957031 L 59.996094 63.957031 C 60.289062 63.953125 60.570312 63.894531 60.835938 63.785156 C 61.105469 63.671875 61.34375 63.511719 61.550781 63.308594 C 61.753906 63.101562 61.914062 62.863281 62.027344 62.597656 C 62.140625 62.328125 62.199219 62.046875 62.199219 61.757812 L 62.199219 51.960938 C 62.199219 51.667969 62.140625 51.390625 62.027344 51.121094 C 61.914062 50.855469 61.753906 50.617188 61.550781 50.410156 C 61.34375 50.207031 61.105469 50.046875 60.835938 49.933594 C 60.570312 49.820312 60.289062 49.765625 59.996094 49.761719 L 49.851562 49.761719 C 45.382812 49.761719 44.445312 47.363281 44.445312 44.164062 L 44.445312 36.765625 C 44.445312 31.769531 47.851562 31.453125 52.65625 31.453125 Z M 52.65625 31.453125 " fill-opacity="1" fill-rule="nonzero"/><path fill="#c3f1c3" d="M 29.554688 20.171875 L 51.585938 20.171875 L 47.378906 11.777344 Z M 29.554688 20.171875 " fill-opacity="1" fill-rule="nonzero"/><path fill="#b0bbc4" d="M 55.390625 20.171875 L 62.199219 20.171875 L 62.199219 19.371094 C 62.199219 19.082031 62.140625 18.800781 62.027344 18.535156 C 61.914062 18.265625 61.753906 18.027344 61.550781 17.824219 C 61.34375 17.617188 61.105469 17.457031 60.835938 17.34375 C 60.570312 17.234375 60.289062 17.175781 59.996094 17.171875 L 53.789062 17.171875 Z M 55.390625 20.171875 " fill-opacity="1" fill-rule="nonzero"/><path fill="#ededed" d="M 66.207031 34.765625 L 49.851562 34.765625 C 48.652344 34.765625 47.851562 35.566406 47.851562 36.765625 L 47.851562 44.164062 C 47.851562 45.363281 48.652344 46.363281 49.851562 46.363281 L 66.207031 46.363281 C 66.5 46.359375 66.777344 46.300781 67.046875 46.191406 C 67.316406 46.078125 67.554688 45.917969 67.757812 45.710938 C 67.964844 45.507812 68.125 45.269531 68.238281 45.003906 C 68.351562 44.734375 68.40625 44.453125 68.410156 44.164062 L 68.410156 36.765625 C 68.410156 35.566406 67.410156 34.765625 66.207031 34.765625 Z M 66.207031 34.765625 " fill-opacity="1" fill-rule="nonzero"/><path fill="#000000" d="M 56.941406 40.566406 C 56.941406 40.972656 56.863281 41.363281 56.707031 41.742188 C 56.550781 42.117188 56.328125 42.453125 56.039062 42.742188 C 55.75 43.027344 55.414062 43.25 55.039062 43.40625 C 54.660156 43.5625 54.265625 43.640625 53.859375 43.640625 C 53.449219 43.640625 53.058594 43.5625 52.679688 43.40625 C 52.300781 43.25 51.96875 43.027344 51.679688 42.742188 C 51.390625 42.453125 51.167969 42.117188 51.011719 41.742188 C 50.855469 41.363281 50.777344 40.972656 50.777344 40.566406 C 50.777344 40.15625 50.855469 39.765625 51.011719 39.386719 C 51.167969 39.011719 51.390625 38.675781 51.679688 38.390625 C 51.96875 38.101562 52.300781 37.878906 52.679688 37.722656 C 53.058594 37.566406 53.449219 37.488281 53.859375 37.488281 C 54.265625 37.488281 54.660156 37.566406 55.039062 37.722656 C 55.414062 37.878906 55.75 38.101562 56.039062 38.390625 C 56.328125 38.675781 56.550781 39.011719 56.707031 39.386719 C 56.863281 39.765625 56.941406 40.15625 56.941406 40.566406 Z M 56.941406 40.566406 " fill-opacity="1" fill-rule="nonzero"/><g clip-path="url(#d2bd54cb95)"><path fill="#000000" d="M 25.023438 60.621094 L 11.621094 60.621094 C 11.402344 60.621094 11.195312 60.578125 10.996094 60.492188 C 10.796875 60.410156 10.621094 60.289062 10.46875 60.136719 C 10.3125 59.980469 10.195312 59.804688 10.113281 59.601562 C 10.03125 59.398438 9.988281 59.1875 9.988281 58.96875 L 9.988281 45.746094 C 9.988281 45.527344 10.03125 45.316406 10.113281 45.117188 C 10.195312 44.914062 10.3125 44.734375 10.46875 44.582031 C 10.621094 44.425781 10.796875 44.308594 10.996094 44.222656 C 11.195312 44.140625 11.402344 44.097656 11.621094 44.097656 C 11.835938 44.097656 12.042969 44.140625 12.242188 44.222656 C 12.441406 44.308594 12.617188 44.425781 12.769531 44.582031 C 12.925781 44.734375 13.042969 44.914062 13.125 45.117188 C 13.207031 45.316406 13.25 45.527344 13.25 45.746094 L 13.25 57.320312 L 25.023438 57.320312 C 25.238281 57.320312 25.445312 57.359375 25.648438 57.445312 C 25.847656 57.527344 26.023438 57.648438 26.175781 57.800781 C 26.328125 57.957031 26.445312 58.136719 26.527344 58.335938 C 26.609375 58.539062 26.652344 58.75 26.652344 58.96875 C 26.652344 59.1875 26.609375 59.398438 26.527344 59.601562 C 26.445312 59.804688 26.328125 59.980469 26.175781 60.136719 C 26.023438 60.289062 25.847656 60.410156 25.648438 60.492188 C 25.445312 60.578125 25.238281 60.621094 25.023438 60.621094 Z M 25.023438 60.621094 " fill-opacity="1" fill-rule="nonzero"/></g></svg>